<?xml version="1.0" encoding="UTF-8"?>
<svg width="1200" height="800" viewBox="0 0 1200 800" xmlns="http://www.w3.org/2000/svg">
  <!-- Dashboard Background -->
  <rect width="1200" height="800" fill="#1E2130" rx="8" ry="8"/>
  
  <!-- Header Section -->
  <rect x="0" y="0" width="1200" height="60" fill="#262A3B" rx="8" ry="8"/>
  <circle cx="40" cy="30" r="20" fill="#7B61FF"/>
  <text x="75" y="38" font-family="Arial" font-size="18" fill="#FFFFFF" font-weight="bold">CryptoNest</text>
  
  <rect x="980" y="15" width="100" height="30" rx="15" ry="15" fill="#313552"/>
  <text x="1000" y="35" font-family="Arial" font-size="14" fill="#FFFFFF">Profile</text>
  
  <rect x="1100" y="15" width="80" height="30" rx="15" ry="15" fill="#7B61FF"/>
  <text x="1120" y="35" font-family="Arial" font-size="14" fill="#FFFFFF">Wallet</text>
  
  <!-- Sidebar -->
  <rect x="0" y="60" width="220" height="740" fill="#262A3B"/>
  
  <!-- Sidebar Menu Items -->
  <rect x="20" y="100" width="180" height="40" rx="6" ry="6" fill="#313552"/>
  <text x="60" y="125" font-family="Arial" font-size="14" fill="#FFFFFF">Dashboard</text>
  
  <text x="60" y="185" font-family="Arial" font-size="14" fill="#9BA3AF">Exchange</text>
  <text x="60" y="245" font-family="Arial" font-size="14" fill="#9BA3AF">Wallets</text>
  <text x="60" y="305" font-family="Arial" font-size="14" fill="#9BA3AF">Transactions</text>
  <text x="60" y="365" font-family="Arial" font-size="14" fill="#9BA3AF">Settings</text>
  
  <!-- Main Content Area -->
  <rect x="240" y="80" width="940" height="700" fill="#1E2130" rx="8" ry="8"/>
  
  <!-- Portfolio Summary Cards -->
  <rect x="260" y="100" width="280" height="160" rx="8" ry="8" fill="#262A3B"/>
  <text x="280" y="130" font-family="Arial" font-size="16" fill="#FFFFFF">Portfolio Value</text>
  <text x="280" y="170" font-family="Arial" font-size="24" fill="#FFFFFF" font-weight="bold">$28,475.35</text>
  <text x="280" y="200" font-family="Arial" font-size="14" fill="#4ADE80">+5.23% (24h)</text>
  
  <rect x="560" y="100" width="280" height="160" rx="8" ry="8" fill="#262A3B"/>
  <text x="580" y="130" font-family="Arial" font-size="16" fill="#FFFFFF">Bitcoin (BTC)</text>
  <text x="580" y="170" font-family="Arial" font-size="24" fill="#FFFFFF" font-weight="bold">$39,265.18</text>
  <text x="580" y="200" font-family="Arial" font-size="14" fill="#4ADE80">+2.34% (24h)</text>
  
  <rect x="860" y="100" width="280" height="160" rx="8" ry="8" fill="#262A3B"/>
  <text x="880" y="130" font-family="Arial" font-size="16" fill="#FFFFFF">Ethereum (ETH)</text>
  <text x="880" y="170" font-family="Arial" font-size="24" fill="#FFFFFF" font-weight="bold">$2,478.91</text>
  <text x="880" y="200" font-family="Arial" font-size="14" fill="#F43F5E">-1.45% (24h)</text>
  
  <!-- Price Chart -->
  <rect x="260" y="280" width="580" height="350" rx="8" ry="8" fill="#262A3B"/>
  <text x="280" y="310" font-family="Arial" font-size="16" fill="#FFFFFF">BTC/USD</text>
  
  <!-- Chart Lines -->
  <polyline points="280,520 320,500 360,510 400,490 440,530 480,520 520,480 560,470 600,490 640,460 680,450 720,470 760,440 800,430" 
           stroke="#7B61FF" fill="none" stroke-width="2"/>
  
  <!-- Time Labels -->
  <text x="280" y="550" font-family="Arial" font-size="10" fill="#9BA3AF">09:00</text>
  <text x="380" y="550" font-family="Arial" font-size="10" fill="#9BA3AF">12:00</text>
  <text x="480" y="550" font-family="Arial" font-size="10" fill="#9BA3AF">15:00</text>
  <text x="580" y="550" font-family="Arial" font-size="10" fill="#9BA3AF">18:00</text>
  <text x="680" y="550" font-family="Arial" font-size="10" fill="#9BA3AF">21:00</text>
  <text x="780" y="550" font-family="Arial" font-size="10" fill="#9BA3AF">00:00</text>
  
  <!-- Recent Transactions -->
  <rect x="860" y="280" width="280" height="350" rx="8" ry="8" fill="#262A3B"/>
  <text x="880" y="310" font-family="Arial" font-size="16" fill="#FFFFFF">Recent Transactions</text>
  
  <rect x="880" y="330" width="240" height="60" rx="4" ry="4" fill="#313552"/>
  <text x="900" y="355" font-family="Arial" font-size="14" fill="#FFFFFF">BTC Deposit</text>
  <text x="900" y="375" font-family="Arial" font-size="12" fill="#9BA3AF">Today, 14:25</text>
  <text x="1060" y="365" font-family="Arial" font-size="14" fill="#4ADE80">+0.05 BTC</text>
  
  <rect x="880" y="400" width="240" height="60" rx="4" ry="4" fill="#313552"/>
  <text x="900" y="425" font-family="Arial" font-size="14" fill="#FFFFFF">ETH Withdrawal</text>
  <text x="900" y="445" font-family="Arial" font-size="12" fill="#9BA3AF">Yesterday, 09:15</text>
  <text x="1060" y="435" font-family="Arial" font-size="14" fill="#F43F5E">-1.2 ETH</text>
  
  <rect x="880" y="470" width="240" height="60" rx="4" ry="4" fill="#313552"/>
  <text x="900" y="495" font-family="Arial" font-size="14" fill="#FFFFFF">USDT Exchange</text>
  <text x="900" y="515" font-family="Arial" font-size="12" fill="#9BA3AF">Apr 10, 11:30</text>
  <text x="1060" y="505" font-family="Arial" font-size="14" fill="#4ADE80">+500 USDT</text>
  
  <!-- Quick Actions -->
  <rect x="260" y="650" width="280" height="120" rx="8" ry="8" fill="#262A3B"/>
  <text x="280" y="680" font-family="Arial" font-size="16" fill="#FFFFFF">Quick Exchange</text>
  <rect x="280" y="700" width="110" height="40" rx="20" ry="20" fill="#7B61FF"/>
  <text x="315" y="725" font-family="Arial" font-size="14" fill="#FFFFFF">Buy</text>
  <rect x="410" y="700" width="110" height="40" rx="20" ry="20" fill="#313552"/>
  <text x="445" y="725" font-family="Arial" font-size="14" fill="#FFFFFF">Sell</text>
  
  <rect x="560" y="650" width="280" height="120" rx="8" ry="8" fill="#262A3B"/>
  <text x="580" y="680" font-family="Arial" font-size="16" fill="#FFFFFF">Quick Deposit</text>
  <rect x="580" y="700" width="240" height="40" rx="20" ry="20" fill="#313552"/>
  <text x="670" y="725" font-family="Arial" font-size="14" fill="#FFFFFF">Connect Wallet</text>
  
  <rect x="860" y="650" width="280" height="120" rx="8" ry="8" fill="#262A3B"/>
  <text x="880" y="680" font-family="Arial" font-size="16" fill="#FFFFFF">Quick Withdraw</text>
  <rect x="880" y="700" width="240" height="40" rx="20" ry="20" fill="#313552"/>
  <text x="960" y="725" font-family="Arial" font-size="14" fill="#FFFFFF">Select Cryptocurrency</text>
</svg>